<?xml version="1.0" encoding="UTF-8"?>
<svg version="1.1" xmlns="http://www.w3.org/2000/svg" width="1024" height="1024">
<path d="M0 0 C337.92 0 675.84 0 1024 0 C1024 337.92 1024 675.84 1024 1024 C686.08 1024 348.16 1024 0 1024 C0 686.08 0 348.16 0 0 Z " fill="#1E1D1D" transform="translate(0,0)"/>
<path d="M0 0 C1.34723145 0.00990967 1.34723145 0.00990967 2.72167969 0.02001953 C5.14998231 0.0420609 7.57295712 0.10875235 10 0.1875 C11.20849609 0.19620117 11.20849609 0.19620117 12.44140625 0.20507812 C16.34817109 0.34989231 18.49943299 0.66837436 21.8125 2.86328125 C27.6249682 11.19794547 29.27512263 21.68969253 31.5 31.4375 C33.33677119 39.45974496 35.35102056 47.25315112 38.04052734 55.03198242 C39.72752722 60.25052124 40.87870459 65.5864895 42.0625 70.9375 C42.30548828 72.01451172 42.54847656 73.09152344 42.79882812 74.20117188 C43.28870397 76.37247834 43.77642498 78.54427212 44.26196289 80.71655273 C45.26130475 85.16251659 46.28889566 89.60175643 47.31860352 94.04077148 C47.8812127 96.48412007 48.42650649 98.93015299 48.96484375 101.37890625 C51.44021158 112.23774528 54.84790583 122.72098319 58.4375 133.25 C68.6906056 163.35697199 77.45723226 193.99712058 85.19482422 224.84326172 C86.71600227 230.80712836 88.33621701 236.74474807 89.9375 242.6875 C92.78527533 253.28533187 95.4934874 263.90946648 98.125 274.5625 C100.48167303 284.10070886 102.95557619 293.58393126 105.71801758 303.01342773 C108.86476079 313.83213053 111.59587163 324.76152048 114.37547302 335.67883301 C115.66353829 340.72301916 116.99382359 345.75511814 118.3359375 350.78515625 C123.37518134 369.7552862 127.45520316 388.60034579 130.4675293 408.01293945 C131.61315206 415.21274242 133.17342812 422.24077204 134.9375 429.3125 C136.62649233 436.18799021 138.26442297 443.03962143 139.5625 450 C140.9943019 457.47063696 143.15042644 464.65874202 145.37255859 471.92333984 C146.70874768 476.34576178 147.94488685 480.79710028 149.203125 485.2421875 C149.76124736 487.17372861 150.36420509 489.09261528 151 491 C151.61057728 496.14629422 151.42408352 499.00737163 148.4375 503.3125 C143.73338906 508.97074665 137.79177803 510.54356435 130.61251831 511.22741699 C129.37322067 511.29950378 129.37322067 511.29950378 128.10888672 511.37304688 C127.16375214 511.42980591 126.21861755 511.48656494 125.24484253 511.54504395 C124.23334137 511.60236694 123.22184021 511.65968994 122.1796875 511.71875 C121.12524445 511.78155151 120.07080139 511.84435303 118.98440552 511.90905762 C115.6147882 512.10932595 112.24492424 512.30497009 108.875 512.5 C105.5265396 512.69563278 102.17814806 512.89230519 98.8298645 513.09094238 C96.74963285 513.21416794 94.66929513 513.33562106 92.58883667 513.45495605 C86.8324308 513.79386883 81.09645645 514.23489377 75.35641479 514.78668213 C63.84849369 515.8284534 56.37719262 515.03895208 47 508 C35.12527653 490.3242634 29.78824931 466.71656637 27 446 C9.21242808 446.27360844 -8.48405949 446.6563294 -26.1875 448.5 C-41.33373481 450.0762624 -56.43517077 450.48943182 -71.65698242 450.70898438 C-72.53811203 450.72283173 -73.41924164 450.73667908 -74.32707214 450.75094604 C-75.99319381 450.77587087 -77.65939541 450.79602709 -79.32563782 450.81082153 C-82.96307584 450.52123236 -82.96307584 450.52123236 -86 452 C-86.29543643 453.88951787 -86.58563979 455.78001043 -86.84863281 457.67431641 C-88.17176117 466.99913021 -90.49664365 475.32182025 -94.15429688 483.98388672 C-95.04387145 486.1045873 -95.88958801 488.24000764 -96.734375 490.37890625 C-97.32076668 491.81598334 -97.90925018 493.25220895 -98.5 494.6875 C-98.76006836 495.3470166 -99.02013672 496.0065332 -99.28808594 496.68603516 C-101.23562177 501.25035094 -103.46630244 504.84509107 -108 507 C-112.6165107 508.1437922 -117.26905365 508.6183424 -122 509 C-122.68850037 509.05579224 -123.37700073 509.11158447 -124.08636475 509.16906738 C-129.44902966 509.58031986 -134.81560237 509.86613906 -140.1875 510.125 C-141.02217804 510.16669312 -141.85685608 510.20838623 -142.71682739 510.25134277 C-155.28894844 510.86952409 -167.85041646 511.20912572 -180.4375 511.25 C-181.1726181 511.25517639 -181.90773621 511.26035278 -182.66513062 511.26568604 C-202.25076599 511.37553008 -202.25076599 511.37553008 -208.4375 505.5 C-209.09621094 504.8915625 -209.75492188 504.283125 -210.43359375 503.65625 C-213.60690789 500.30092533 -213.45066262 497.13350778 -213.41015625 492.68359375 C-212.68000136 486.12610741 -210.58910865 479.9409004 -208.6796875 473.64453125 C-207.36523131 469.30712155 -206.21719165 464.95641494 -205.14282227 460.55444336 C-201.52736837 445.83585226 -196.78808251 431.4692802 -192.11328125 417.06030273 C-185.14166391 395.6894808 -185.14166391 395.6894808 -180.0625 373.8125 C-179.9082959 373.01682617 -179.7540918 372.22115234 -179.59521484 371.40136719 C-178.8279147 367.42919892 -178.08472372 363.45259146 -177.34033203 359.47607422 C-171.78795242 329.87735599 -164.52655874 301.04218265 -155.27172852 272.36865234 C-152.78630896 264.54744809 -150.69030264 256.62467417 -148.62304688 248.68408203 C-146.71963315 241.4344493 -144.56582214 234.28299656 -142.30493164 227.13891602 C-141.00798133 223.03999691 -139.74815977 218.93041422 -138.5 214.81640625 C-138.19332901 213.80580894 -138.19332901 213.80580894 -137.88046265 212.77479553 C-137.2528664 210.70426418 -136.62626892 208.63343319 -136 206.5625 C-135.78145355 205.84022217 -135.5629071 205.11794434 -135.33773804 204.3737793 C-130.62323616 188.78880552 -126.0299138 173.1822885 -121.65551758 157.49804688 C-119.55782731 149.9774893 -117.42546867 142.46762925 -115.27197266 134.96289062 C-112.98934293 126.99410772 -110.76260272 119.00999378 -108.53955078 111.02441406 C-107.06960463 105.76003166 -105.56845895 100.50929412 -103.98706055 95.27734375 C-101.178142 85.97329125 -98.92508442 76.57189028 -96.72412109 67.10791016 C-95.31199326 61.04709175 -93.87894289 54.99140604 -92.4375 48.9375 C-92.01621826 47.13684082 -92.01621826 47.13684082 -91.58642578 45.29980469 C-86.80735019 25.26711944 -86.80735019 25.26711944 -81.4375 16.4375 C-80.56931641 14.98150391 -80.56931641 14.98150391 -79.68359375 13.49609375 C-76.14797938 8.25419681 -76.14797938 8.25419681 -72.09033203 7.35571289 C-70.90810059 7.2293042 -69.72586914 7.10289551 -68.5078125 6.97265625 C-67.53305466 6.86198067 -67.53305466 6.86198067 -66.53860474 6.74906921 C-64.40185289 6.50852082 -62.26363483 6.28562786 -60.125 6.0625 C-57.12175957 5.73086498 -54.1195096 5.39061607 -51.1171875 5.05078125 C-50.35559326 4.96585419 -49.59399902 4.88092712 -48.80932617 4.79342651 C-43.79997013 4.22834024 -38.80892739 3.58055409 -33.8203125 2.85546875 C-31.90387939 2.5778772 -31.90387939 2.5778772 -29.94873047 2.29467773 C-27.55875019 1.9427275 -25.16966826 1.58459654 -22.78173828 1.21899414 C-15.12553885 0.1043135 -7.72946522 -0.17897995 0 0 Z " fill="#FEFEFE" transform="translate(360,274)"/>
<path d="M0 0 C0.74185547 -0.00073013 1.48371094 -0.00146027 2.24804688 -0.00221252 C4.69443483 0.00126452 7.13890666 0.04012723 9.58496094 0.0793457 C11.2831722 0.08867351 12.98139693 0.09578978 14.67962646 0.1007843 C19.14503254 0.1198569 23.60962284 0.16895933 28.07470703 0.2243042 C32.63270024 0.27549141 37.19082553 0.29829718 41.74902344 0.32348633 C50.68948563 0.37707831 59.6293429 0.46239386 68.56933594 0.56762695 C71.23862096 5.94596076 72.00943742 10.08529566 71.98583984 16.04931641 C71.9944252 16.87044922 72.00301056 17.69158203 72.01185608 18.53759766 C72.03691197 21.25212263 72.04130803 23.96627793 72.04589844 26.6809082 C72.06025795 28.61054032 72.07602353 30.54016243 72.09310913 32.46977234 C72.13499287 37.57459446 72.15990649 42.67935505 72.18060303 47.78430176 C72.21627216 55.82523313 72.27966796 63.86600655 72.33909225 71.90678978 C72.35731117 74.64263831 72.3696708 77.37844793 72.38052368 80.11433411 C72.42662546 89.08010863 72.5412305 98.03998514 72.79945374 107.00218201 C73.71935526 139.35590165 73.73393333 171.7040134 73.73659301 204.06772494 C73.73709541 208.93389964 73.73940518 213.80007249 73.74209023 218.66624641 C73.7508516 234.88650256 73.7555168 251.10675222 73.75475975 267.32701074 C73.75469982 268.6257288 73.75469982 268.6257288 73.75463867 269.95068359 C73.75459779 270.81761249 73.75455691 271.68454139 73.75451479 272.57774086 C73.75410969 286.57728619 73.76365687 300.57680445 73.77777704 314.57634198 C73.79232463 329.120088 73.79903732 343.66382099 73.79818326 358.20757443 C73.7978575 366.30470475 73.80038792 374.40180639 73.81136131 382.49892998 C73.85007556 412.72996763 73.79523882 442.95673163 72.91698325 473.17736065 C72.84308149 475.76646819 72.77495124 478.35574779 72.71298063 480.94516838 C72.62494913 484.48315477 72.51138385 488.01933344 72.38935852 491.55628967 C72.35578788 493.10917393 72.35578788 493.10917393 72.32153904 494.69342959 C72.08118038 500.58590212 71.46451755 504.06004655 67.56933594 508.56762695 C63.18091885 512.19554132 58.99054532 513.47282358 53.45605469 514.28637695 C52.67534103 514.40758911 51.89462738 514.52880127 51.09025574 514.65368652 C42.72577126 515.84823501 34.38465922 516.09117874 25.94555664 516.06860352 C23.37177161 516.06762312 20.80090407 516.10963788 18.22753906 516.15356445 C6.14003291 516.2413885 -7.23377431 515.46738487 -16.43066406 506.56762695 C-18.90299264 502.00755699 -18.70595893 497.62393612 -18.6711731 492.57633972 C-18.67288195 491.66960253 -18.6745908 490.76286533 -18.67635143 489.82865125 C-18.67964599 486.78998401 -18.6686431 483.75153753 -18.65771484 480.71289062 C-18.65715072 478.53484095 -18.65746731 476.3567909 -18.65859985 474.17874146 C-18.65917433 468.26390368 -18.64740456 462.3491468 -18.63345194 456.43432784 C-18.62096048 450.25369281 -18.61977533 444.07305598 -18.61740112 437.89241028 C-18.6111817 426.18758169 -18.5947646 414.4827904 -18.57470214 402.77797824 C-18.55219714 389.45284863 -18.54135333 376.12771886 -18.53131127 362.80257452 C-18.5103988 335.39090464 -18.47521381 307.97926788 -18.43066406 280.56762695 C-25.09199792 280.53067409 -31.75330462 280.50579514 -38.41471863 280.48866272 C-40.67300911 280.48150788 -42.93129312 280.47175554 -45.18955994 280.45918274 C-58.46329919 280.38722189 -71.53749899 280.5811816 -84.74316406 282.00512695 C-85.41463156 282.07731508 -86.08609905 282.14950321 -86.77791405 282.22387886 C-88.65705052 282.42612436 -90.53605095 282.6296327 -92.41503906 282.83325195 C-107.02216205 284.3183464 -121.76033663 284.32483669 -136.43066406 284.56762695 C-137.45956297 298.96278882 -137.74222205 313.35137846 -137.96582031 327.77856445 C-137.99681163 329.67405092 -137.99681163 329.67405092 -138.02842903 331.60783005 C-138.37177138 352.7525799 -138.55609051 373.89711235 -138.67675781 395.04418945 C-138.68522644 396.49979407 -138.69370652 397.95539863 -138.70219803 399.41100311 C-138.77923988 412.69900942 -138.85095185 425.98703614 -138.9074707 439.27514648 C-138.93594553 445.95589911 -138.97132217 452.63657977 -139.01412445 459.31725633 C-139.03612047 462.79727697 -139.05480565 466.27723458 -139.06457329 469.75731277 C-139.18441176 507.24550324 -139.18441176 507.24550324 -142.67790222 513.96749878 C-145.04726796 516.13053587 -146.45447765 516.08332625 -149.63867188 516.11352539 C-150.70539124 516.13324402 -151.7721106 516.15296265 -152.87115479 516.17327881 C-154.0303241 516.17450745 -155.18949341 516.17573608 -156.38378906 516.17700195 C-158.1933609 516.20180634 -158.1933609 516.20180634 -160.03948975 516.22711182 C-163.91992971 516.27574765 -167.79998469 516.29691587 -171.68066406 516.31762695 C-174.21844481 516.34579933 -176.7562067 516.37572852 -179.29394531 516.4074707 C-184.28296586 516.46636248 -189.27141657 516.50343237 -194.26074219 516.52270508 C-198.91267528 516.54181017 -203.55940757 516.60836261 -208.20996094 516.72192383 C-209.2613324 516.74071594 -210.31270386 516.75950806 -211.39593506 516.77886963 C-213.34408293 516.8139611 -215.29204648 516.86393669 -217.23931885 516.93206787 C-222.83382766 517.00674473 -226.0168826 516.36448412 -230.43066406 512.56762695 C-234.05009531 507.57530799 -234.55558725 503.42083332 -234.55764771 497.35507202 C-234.56046753 496.07768661 -234.56328735 494.80030121 -234.56619263 493.48420715 C-234.56424803 492.06979356 -234.56219985 490.65538011 -234.56005859 489.2409668 C-234.56141414 487.7487636 -234.56319493 486.25656075 -234.56536865 484.76435852 C-234.56993659 480.70251636 -234.56815291 476.64069956 -234.56498957 472.57885695 C-234.56244866 468.29594831 -234.56480961 464.01304178 -234.56637573 459.73013306 C-234.56819827 452.50538752 -234.56579505 445.28065219 -234.56103516 438.0559082 C-234.55565412 429.79495924 -234.55730924 421.5340352 -234.56286156 413.27308691 C-234.56746514 406.12943196 -234.56800675 398.98578435 -234.56542289 391.8421284 C-234.56389121 387.60006407 -234.56357665 383.35801124 -234.56695938 379.11594772 C-234.58047785 359.50539693 -234.33706458 339.92988556 -233.67221069 320.33007812 C-233.19290414 305.92255761 -233.08331437 291.50439254 -232.90460205 277.09063721 C-232.85267923 272.90473768 -232.79774146 268.71889911 -232.73878479 264.5330925 C-232.71328968 262.64600926 -232.69191549 260.75887168 -232.67077637 258.87173462 C-232.5720615 251.84436603 -232.3057328 244.85023571 -231.92358398 237.83349609 C-231.39668042 227.99704614 -231.26704581 218.18606652 -231.26269531 208.3371582 C-231.25946376 206.56475297 -231.25609846 204.79234798 -231.25260925 203.01994324 C-231.24668817 199.33685693 -231.24476205 195.65379384 -231.24536133 191.97070312 C-231.24544253 188.25255463 -231.23849726 184.5345295 -231.22485352 180.81640625 C-231.09728175 154.36870898 -231.09728175 154.36870898 -232.70619202 127.98274231 C-233.70713274 117.34554731 -233.73725362 106.74433761 -233.68066406 96.06762695 C-233.67822693 95.04459473 -233.67578979 94.0215625 -233.67327881 92.9675293 C-233.63969153 80.89114024 -233.51198792 68.8756785 -232.27661133 56.8515625 C-231.61935201 50.43923561 -231.26033507 44.05759303 -231.02832031 37.6184082 C-230.95864077 35.83129318 -230.88881563 34.04418383 -230.81884766 32.25708008 C-230.71524688 29.58892259 -230.61926359 26.9216868 -230.54864502 24.25244141 C-230.48218198 21.76902772 -230.38668788 19.28814242 -230.28613281 16.8059082 C-230.27453629 16.06327225 -230.26293976 15.32063629 -230.25099182 14.55549622 C-229.97988147 8.84708302 -228.40213441 6.4087886 -224.43066406 2.56762695 C-220.99059493 1.42093724 -218.29709641 1.41951857 -214.66772461 1.390625 C-213.64276886 1.3807682 -213.64276886 1.3807682 -212.59710693 1.37071228 C-210.33719772 1.35101201 -208.07735487 1.33932413 -205.81738281 1.3293457 C-204.65777511 1.32323241 -204.65777511 1.32323241 -203.47474098 1.31699562 C-199.38298435 1.29614895 -195.29126111 1.28184112 -191.19946289 1.27246094 C-186.97932635 1.26139858 -182.75971738 1.2269972 -178.53976727 1.18728924 C-175.28917987 1.16111064 -172.03871798 1.15276804 -168.78803444 1.14917946 C-167.23273975 1.14431678 -165.67745056 1.13271177 -164.12225914 1.11414146 C-161.9416795 1.08972166 -159.76246239 1.09071925 -157.58178711 1.09765625 C-156.34285202 1.09179001 -155.10391693 1.08592377 -153.82743835 1.07987976 C-148.72027639 1.81322372 -145.66803901 4.26150895 -142.18066406 7.94262695 C-138.89302768 12.87408153 -138.17349292 17.56528396 -138.02772522 23.41305542 C-138.00919003 24.06744952 -137.99065484 24.72184363 -137.97155797 25.39606786 C-137.91345323 27.54671954 -137.86906872 29.69739828 -137.82543945 31.84838867 C-137.78822494 33.37446671 -137.75053006 34.90053311 -137.71238041 36.42658806 C-137.35011187 51.57612199 -137.21424064 66.7280211 -137.12734103 81.8812356 C-137.10482126 85.6580562 -137.07776899 89.4348449 -137.05128479 93.2116394 C-137.00221765 100.30076598 -136.95697617 107.38991107 -136.91326243 114.47907245 C-136.86313386 122.57646321 -136.80850703 130.67382192 -136.75358284 138.77118134 C-136.64109028 155.36996669 -136.53398511 171.96878192 -136.43066406 188.56762695 C-134.86342153 188.73337677 -133.29590078 188.89649691 -131.72827148 189.05854797 C-130.41894905 189.1952388 -130.41894905 189.1952388 -129.08317566 189.33469105 C-124.96915313 189.69597262 -120.87070491 189.72962343 -116.74316406 189.7355957 C-115.85150543 189.73969452 -114.9598468 189.74379333 -114.04116821 189.74801636 C-111.17096016 189.75751964 -108.30088551 189.75754805 -105.43066406 189.75512695 C-104.44314148 189.75551971 -103.4556189 189.75591248 -102.43817139 189.75631714 C-90.29234251 189.75053681 -78.27015177 189.51226557 -66.17138672 188.35400391 C-50.31476299 186.89013539 -34.34271385 186.90443451 -18.43066406 186.56762695 C-17.63238579 165.19856646 -17.35014035 143.83881393 -17.30036926 122.45557404 C-17.2904612 118.23589349 -17.27615039 114.01623477 -17.2611084 109.79656982 C-17.25114165 106.92858914 -17.24128169 104.06060809 -17.23144531 101.19262695 C-17.22897073 100.47724274 -17.22649614 99.76185853 -17.22394657 99.02479601 C-17.19648914 90.9436672 -17.17808805 82.86267283 -17.18017578 74.78149414 C-17.18177253 68.24733145 -17.1655893 61.71346948 -17.12946916 55.17940319 C-17.11123839 51.75709303 -17.10146728 48.33528447 -17.11394501 44.91293716 C-17.18982471 15.16806651 -17.18982471 15.16806651 -9.72583008 2.72569275 C-6.62662395 -0.18838435 -4.04231507 -0.1043642 0 0 Z " fill="#FEFEFE" transform="translate(789.4306640625,269.432373046875)"/>
<path d="M0 0 C0.99 0.33 1.98 0.66 3 1 C4.07777529 3.53573978 4.9560514 5.96643101 5.77734375 8.5859375 C6.02996475 9.35749176 6.28258575 10.12904602 6.54286194 10.92398071 C7.35241986 13.40413505 8.14539047 15.88922414 8.9375 18.375 C9.72743129 20.81748397 10.52074337 23.25884999 11.31451416 25.7000885 C11.82996082 27.28622414 12.34392633 28.87284191 12.85638428 30.45994568 C14.51936203 35.59378585 16.29900962 40.67113383 18.17504883 45.73144531 C24.37921773 62.79245076 28.47821939 80.9604854 31.9375 98.75 C33.46746434 106.5871814 35.88321231 113.95548761 38.71459961 121.41699219 C41.53935756 128.95481831 41.53935756 128.95481831 41 133 C32.76929778 141.23070222 2.74180685 138.12297875 -8.39111328 138.13623047 C-14.2610931 138.12632465 -20.1305242 138.07850122 -26 138 C-27.0757383 133.90523883 -26.85947039 130.73646647 -26.1796875 126.57421875 C-25.97682129 125.31577148 -25.77395508 124.05732422 -25.56494141 122.76074219 C-25.33560877 121.40288522 -25.10561167 120.04514033 -24.875 118.6875 C-24.64101448 117.27638357 -24.40712891 115.86525056 -24.17333984 114.45410156 C-22.48992418 104.40660479 -20.53175544 94.43421313 -18.37890625 84.4765625 C-17.31505141 79.54321945 -16.31440084 74.59998164 -15.33984375 69.6484375 C-15.19544861 68.91521774 -15.05105347 68.18199799 -14.90228271 67.42655945 C-14.60552308 65.9192925 -14.30877022 64.41202422 -14.01202393 62.90475464 C-11.15449775 48.41284845 -8.01358756 34.01336224 -4.61376953 19.63769531 C-3.51624658 14.92105331 -2.52233674 10.18392154 -1.54296875 5.44140625 C-1 3 -1 3 0 0 Z " fill="#201F1F" transform="translate(328,470)"/>
</svg>
